<?xml version="1.0" ?><!DOCTYPE svg  PUBLIC '-//W3C//DTD SVG 1.1//EN'  'http://www.w3.org/Graphics/SVG/1.1/DTD/svg11.dtd'><svg height="8.4666mm" style="shape-rendering:geometricPrecision; text-rendering:geometricPrecision; image-rendering:optimizeQuality; fill-rule:evenodd; clip-rule:evenodd" version="1.1" viewBox="0 0 847 847" width="8.4666mm" xml:space="preserve" xmlns="http://www.w3.org/2000/svg" xmlns:xlink="http://www.w3.org/1999/xlink"><defs><style type="text/css">
   <![CDATA[
    .fil3 {fill:#665449;fill-rule:nonzero}
    .fil2 {fill:#A97D4B;fill-rule:nonzero}
    .fil1 {fill:#B3854F;fill-rule:nonzero}
    .fil0 {fill:#FAD00D;fill-rule:nonzero}
   ]]>
  </style></defs><g id="Layer_x0020_1"><g id="_1046269040"><path class="fil0" d="M336 570c0,-8 0,-16 1,-25 -4,0 -7,0 -11,1 -4,0 -8,0 -12,0 0,8 0,18 -1,26 7,-1 16,-2 23,-2z"/><path class="fil0" d="M340 507c-8,0 -15,0 -23,0 0,6 -1,12 -1,18 7,0 15,0 22,-1 1,-6 1,-11 2,-17z"/><path class="fil1" d="M293 526c1,0 1,0 1,0 1,-6 1,-11 1,-16 0,-3 0,-6 0,-9 0,-2 -1,-6 0,-2 -1,-6 3,-14 10,-13 16,1 32,0 48,0 7,-1 13,9 9,15 -1,1 -1,3 -1,4 -1,6 -1,12 -2,18 56,-2 112,-4 168,-5 22,-1 44,-1 66,-2 4,0 9,0 13,0 1,0 2,0 3,0 4,0 10,0 16,0 0,-2 0,-4 0,-6 0,-3 0,-7 0,-11 0,-2 0,-4 0,-6 0,-5 0,-10 1,-15 0,-1 0,-1 0,-2 0,-73 -4,-146 -8,-219 -73,7 -148,7 -222,7 -80,1 -159,4 -239,9 -1,0 -2,0 -3,0 -6,0 -10,3 -12,9 -9,67 -3,135 -1,202 0,5 1,48 0,48 2,0 4,0 7,0 2,0 4,0 6,0 0,0 1,0 1,0 10,-3 24,-2 35,-2 35,-1 69,-3 103,-4z"/><path class="fil2" d="M614 537c-2,0 -4,0 -5,0 -15,0 -29,0 -43,1 -48,1 -95,2 -142,4 -22,1 -44,2 -66,2 -1,14 -1,27 -1,40 1,10 -14,14 -19,5 3,6 2,3 -5,3 -5,0 -9,1 -14,1 -7,0 -14,2 -20,1 -8,0 -13,-8 -9,-16 3,-6 3,-20 4,-31 -14,1 -27,1 -40,2 -26,1 -52,2 -78,3 -4,0 -10,1 -16,1 0,26 0,52 1,78 0,4 3,44 4,44 12,1 24,1 36,1 55,1 109,0 164,0 84,0 169,0 253,-2 1,-46 1,-91 2,-137 -2,0 -4,0 -6,0z"/><path class="fil2" d="M674 421c0,-9 -1,-19 -2,-28 -1,-8 12,-8 12,0 1,9 2,19 3,28 0,8 -12,8 -13,0zm15 38c-3,8 -4,16 -1,24 2,7 -10,11 -12,3 -4,-11 -3,-22 2,-33 3,-7 14,-1 11,6zm3 66c-3,5 -4,11 -3,17 1,3 0,7 -4,8 -3,1 -7,-1 -8,-5 -1,-9 0,-18 4,-26 3,-8 14,-1 11,6zm-8 94c0,8 -13,8 -13,0 0,-9 0,-19 0,-28 0,-8 12,-8 12,0 1,9 1,19 1,28zm-12 -264c0,-8 0,-17 0,-25 0,-8 13,-8 13,0 0,8 0,17 0,25 0,8 -13,8 -13,0zm6 -94c-1,10 -1,20 2,30 2,8 -10,11 -12,3 -3,-11 -4,-22 -3,-33 -9,0 -19,0 -26,0 4,72 8,143 7,215 0,0 0,1 0,2 0,5 0,10 0,15 0,2 0,4 0,6 0,4 0,8 0,11 -1,6 -1,12 -1,18 0,3 -2,6 -4,7 -1,46 -1,93 -2,139 11,-1 22,-1 33,-1 0,-9 -1,-17 -1,-25 0,-8 13,-9 13,-1 0,9 0,17 0,25 7,0 13,0 20,-1 9,-134 2,-269 1,-404 0,-5 -12,-6 -27,-6z"/><path class="fil3" d="M684 672c0,-8 0,-16 0,-25 0,-8 -13,-7 -13,1 0,8 1,16 1,25 -11,0 -22,0 -33,1 1,-46 1,-93 2,-139 2,-1 4,-4 4,-7 0,-6 0,-12 1,-18 0,-3 0,-7 0,-11 0,-2 0,-4 0,-6 0,-5 0,-10 0,-15 0,-1 0,-2 0,-2 1,-72 -3,-143 -7,-215 7,0 17,0 26,0 -1,11 0,22 3,33 2,8 14,5 12,-3 -3,-10 -3,-20 -2,-30 15,0 27,1 27,6 1,135 8,270 -1,404 -7,1 -13,1 -20,1zm-319 4c-55,0 -109,1 -164,0 -12,0 -24,0 -36,-1 -1,0 -4,-40 -4,-44 -1,-26 -1,-52 -1,-78 6,0 12,-1 16,-1 26,-1 52,-2 78,-3 13,-1 26,-1 40,-2 -1,11 -1,25 -4,31 -4,8 1,16 9,16 6,1 13,-1 20,-1 5,0 9,-1 14,-1 7,0 8,3 5,-3 5,9 20,5 19,-5 0,-13 0,-26 1,-40 22,0 44,-1 66,-2 47,-2 94,-3 142,-4 14,-1 28,-1 43,-1 1,0 3,0 5,0 2,0 4,0 6,0 -1,46 -1,91 -2,137 -84,2 -169,2 -253,2zm-49 -151c0,-6 1,-12 1,-18 8,0 15,0 23,0 -1,6 -1,11 -2,17 -7,1 -15,1 -22,1zm10 21c4,-1 7,-1 11,-1 -1,9 -1,17 -1,25 -7,0 -16,1 -23,2 1,-8 1,-18 1,-26 4,0 8,0 12,0zm-172 -14c-2,0 -4,0 -6,0 -3,0 -5,0 -7,0 1,0 0,-43 0,-48 -2,-67 -8,-135 1,-202 2,-6 6,-9 12,-9 1,0 2,0 3,0 80,-5 159,-8 239,-9 74,0 149,0 222,-7 4,73 8,146 8,219 0,1 0,1 0,2 -1,5 -1,10 -1,15 0,2 0,4 0,6 0,4 0,8 0,11 0,2 0,4 0,6 -6,0 -12,0 -16,0 -1,0 -2,0 -3,0 -4,0 -9,0 -13,0 -22,1 -44,1 -66,2 -56,1 -112,3 -168,5 1,-6 1,-12 2,-18 0,-1 0,-3 1,-4 4,-6 -2,-16 -9,-15 -16,0 -32,1 -48,0 -7,-1 -11,7 -10,13 -1,-4 0,0 0,2 0,3 0,6 0,9 0,5 0,10 -1,16 0,0 0,0 -1,0 -34,1 -68,3 -103,4 -11,0 -25,-1 -35,2 0,0 -1,0 -1,0zm220 -361c25,-3 51,1 75,7 27,7 29,41 26,65 -23,0 -47,0 -71,1 -33,0 -67,1 -101,2 10,-39 25,-72 71,-75zm352 93c-1,-13 -8,-20 -21,-23 -21,-3 -46,-1 -68,0 -2,-3 -5,-6 -9,-5 -44,4 -88,6 -132,7 2,-24 1,-56 -15,-72 -21,-21 -64,-21 -92,-22 -29,0 -57,5 -78,28 -16,19 -24,45 -29,69 -42,2 -84,4 -125,6 -20,2 -33,9 -36,30 -4,33 -4,66 -4,98 1,33 2,65 3,97 0,15 1,31 1,47 0,9 -1,21 8,27 3,1 6,2 10,2 -1,9 0,18 0,26 0,30 1,60 5,90 3,24 12,27 35,27 62,2 124,1 186,1 116,0 232,0 348,-5 6,0 10,-5 11,-11 11,-138 3,-276 2,-415 0,0 0,-1 0,-2z"/><path class="fil3" d="M685 355c0,-8 0,-17 0,-25 0,-8 -13,-8 -13,0 0,8 0,17 0,25 0,8 13,8 13,0z"/><path class="fil3" d="M672 393c1,9 2,19 2,28 1,8 13,8 13,0 -1,-9 -2,-19 -3,-28 0,-8 -13,-8 -12,0z"/><path class="fil3" d="M678 453c-5,11 -6,22 -2,33 2,8 14,4 12,-3 -3,-8 -2,-16 1,-24 3,-7 -8,-13 -11,-6z"/><path class="fil3" d="M681 519c-4,8 -5,17 -4,26 1,4 5,6 8,5 4,-1 5,-5 4,-8 -1,-6 0,-12 3,-17 3,-7 -8,-14 -11,-6z"/><path class="fil3" d="M671 591c0,9 0,19 0,28 0,8 13,8 13,0 0,-9 0,-19 -1,-28 0,-8 -12,-8 -12,0z"/></g></g></svg>