<?xml version="1.0" ?><!DOCTYPE svg  PUBLIC '-//W3C//DTD SVG 1.1//EN'  'http://www.w3.org/Graphics/SVG/1.1/DTD/svg11.dtd'><svg enable-background="new 0 0 128 128" id="Слой_1" version="1.1" viewBox="0 0 128 128" xml:space="preserve" xmlns="http://www.w3.org/2000/svg" xmlns:xlink="http://www.w3.org/1999/xlink"><g><rect fill="#3EBBC4" height="4" width="69" x="29" y="92"/><rect fill="#3EBBC4" height="4" width="9" x="89" y="102"/><rect fill="#3EBBC4" height="60" width="4" x="42" y="24"/><rect fill="#3EBBC4" height="4" width="10" x="29" y="32"/><rect fill="#3EBBC4" height="4" width="10" x="49" y="32"/><rect fill="#3EBBC4" height="4" width="10" x="54" y="52"/><rect fill="#3EBBC4" height="4" width="15" x="74" y="62"/><rect fill="#3EBBC4" height="4" width="20" x="59" y="42"/><rect fill="#3EBBC4" height="4" width="10" x="29" y="42"/><rect fill="#3EBBC4" height="4" width="10" x="29" y="52"/><rect fill="#3EBBC4" height="4" width="10" x="29" y="62"/><rect fill="#3EBBC4" height="4" width="10" x="29" y="72"/><rect fill="#3EBBC4" height="4" width="14" x="84" y="72"/><path d="M16,2v124h94V23.2L88.8,2H16z M90,8.8L103.2,22H90V8.8z M20,122V6h66v20h20v96H20z" fill="#3EBBC4"/></g></svg>